<svg version="1.1" id="Layer_1" xmlns="http://www.w3.org/2000/svg" xmlns:xlink="http://www.w3.org/1999/xlink" x="0px" y="0px" viewBox="0 0 315 255.04" style="enable-background:new 0 0 315 255.04;" xml:space="preserve">
      <style type="text/css">.st0{fill:#214CE8;}	.st1{fill:#2B8AFC;}	.st2{opacity:0.11;enable-background:new    ;}	.st3{opacity:0.22;enable-background:new    ;}	.st4{fill:#54E4F7;}	.st5{fill:#AEFDFF;}	.st6{fill:#052377;}	.st7{opacity:0.5;fill:#FFFFFF;enable-background:new    ;}	.st8{opacity:0.25;fill:#FFFFFF;enable-background:new    ;}	.st9{opacity:0.08;fill:#FFFFFF;enable-background:new    ;}	.st10{opacity:0.47;fill:#FFFFFF;enable-background:new    ;}	.st11{opacity:0.13;fill:#FFFFFF;enable-background:new    ;}</style>
    <g id="color_index_0" fill="rgba(33, 76, 232, 1)">
              <path d="M310.99,92.83c-1.67,10.03-3.68,20.66-5.91,31.45c-1.21,5.84-2.47,11.73-3.77,17.6&#9;&#9;c-0.1,0.49-0.22,0.97-0.32,1.45c-0.74,3.32-1.5,6.63-2.25,9.92c-2.46,10.69-4.98,21.16-7.44,30.97c0,0.01,0,0.01,0,0.01&#9;&#9;c-6.79,27.17-13.01,49.24-15.55,56.98c-27.94,18.53-64.69,18.53-92.94-2.83c-9.73-15.38-21.98-79.75-24.49-81.33&#9;&#9;c-1.57,1.57-20.09,84.16-20.09,84.16s-43.96,33.29-91.38-3.45c-13.26-22.54-23.13-53.3-30.32-86.35c-0.37-1.67-0.72-3.35-1.08-5.03&#9;&#9;c-0.15-0.71-0.3-1.43-0.45-2.15c-2.04-9.95-10.24-70.62-10.38-71.96C2.93,56.14,1.36,41.03,0.55,26.67&#9;&#9;C63.3-3.3,77.24,45.62,79.21,73.85c0.15,2.15,0.84,9.79,1.6,17.96c0.34,3.62,0.68,7.35,1,10.77c0.59,6.26,1.09,11.42,1.23,12.82&#9;&#9;c1.5,15.07,3.42,31.22,5.59,45.96c0.3,2.05,0.61,4.07,0.92,6.07c0.1,0.64,0.2,1.27,0.3,1.9c0.47,3.04,0.97,5.99,1.47,8.84&#9;&#9;c0.87,4.96,1.75,9.59,2.66,13.74c9.1-4.55,29.09-112.93,34.7-118.54c28.57-12.24,62.8-7.07,69.71,19.31&#9;&#9;c0.39,1.5,0.84,2.82,1.26,4.39c4.44,16.81,9.91,37.49,15.7,58.56c2.39,8.71,5.17,17.28,7.5,25.75l0.06,0.2&#9;&#9;c0.79,2.84,1.57,5.66,2.33,8.43c0.58-1,2.66-10.1,5.34-25.09c3.06-17.18,6.9-42.08,10.13-71.37c2.37-21.59,4.42-45.58,5.57-70.6&#9;&#9;c25.53-15.04,61.52-11.15,67.83,25.44C315.66,57.52,311.92,87.24,310.99,92.83z"/>
          </g>
    <g id="color_index_1" fill="rgba(43, 138, 252, 1)">
              <path d="M310.99,92.83l-33.96-9.87l-30.77-3.77l-6.47,13.93c-0.24,2.15-0.49,4.31-0.74,6.48&#9;&#9;c-0.02,0.25-0.06,0.49-0.08,0.74c-0.29,2.47-0.58,4.95-0.87,7.42l-0.01,0.01c-0.98,8.34-2.02,16.66-3.08,24.64&#9;&#9;c-0.81,6.16-1.62,12.11-2.44,17.72c-0.17,1.16-0.33,2.32-0.5,3.45c-0.07,0.46-0.14,0.92-0.2,1.37c-0.03,0.2-0.06,0.39-0.09,0.59&#9;&#9;c-0.04,0.29-0.09,0.57-0.13,0.86c-0.09,0.58-0.17,1.16-0.26,1.73c-0.14,0.88-0.26,1.74-0.4,2.6l0,0c-0.53,3.41-1.05,6.63-1.56,9.62&#9;&#9;c1.35,1.89,4.23,4.58,9.91,5.55c21.98,2.52,32.34-28.26,45.21-32.66c12.88-4.39,15.55,4.01,15.55,4.01l0.89-3.91&#9;&#9;c1.41-6.34,2.78-12.74,4.09-19.05v-0.01C307.31,113.49,309.32,102.85,310.99,92.83z"/>
        <path d="M83.04,115.4C83.04,115.4,83.04,115.4,83.04,115.4c-0.27-2.69-0.52-5.35-0.77-7.95&#9;&#9;c-0.04-0.39-0.07-0.78-0.1-1.16c-0.69-7.56-1.26-14.68-1.69-21.02c-0.01-0.03-0.01-0.07-0.02-0.1&#9;&#9;c-0.63-3.45-3.77-15.07-18.21-13.82c-14.45,1.26-21.04,17.9-27.64,28.89c-6.16,10.27-22.99,10.13-26.46,4.44&#9;&#9;c0.45,3.11,0.92,6.24,1.41,9.36l0,0c1.59,10.13,3.4,20.26,5.44,30.21c0.1-0.03,0.15-0.05,0.15-0.05&#9;&#9;c3.14-7.22,17.06-6.09,26.38,1.89c8.79,7.54,13.82,21.66,23.24,27.32c9.34,5.6,23.29,8.11,25.07-4.06&#9;&#9;C87.18,152.59,84.82,133.24,83.04,115.4L83.04,115.4z"/>
        <path d="M215.69,155.48c-2.97,0.22-7.37-5.8-10.56-10.67c-3.14-3.77-11.31-11.74-11.31-11.74&#9;&#9;c-5.34-3.65-10.79-4.77-16.06-4.27c5.28-0.51,10.72,0.62,16.06,4.27c-3.72-3.35-8.11-6.39-13.18-7.73&#9;&#9;c-12.87-3.38-30.77,10.67-39.25,17.9c-8.48,7.22-23.24,11.31-32.34,3.45l-0.01-0.02c-1.54,6.63-3.11,13.02-4.71,18.86&#9;&#9;c9.74,9.11,32.04-4.67,41.14-15.66c0.03-0.04,0.06-0.07,0.09-0.11c10.65-9.03,23.82-14.33,34.77-3.7&#9;&#9;c10.99,10.67,21.35,29.83,29.83,42.39s14.76,12.87,18.21,13.82c-1.89-5.96-3.14-12.24-3.14-12.24&#9;&#9;C222.16,178.94,218.91,167.19,215.69,155.48z M177.64,128.83c-0.25,0.02-0.5,0.06-0.76,0.09&#9;&#9;C177.14,128.88,177.39,128.85,177.64,128.83z"/>
          </g>
    <g>
              <path class="st2" d="M93.97,191.92c0,0-8.8,21.36-21.98,21.36c-13.19,0-15.7-18.22-20.41-35.49c-4.71-17.27-19.77-33.91-36.11-31.4&#9;&#9;h-0.01c-0.15-0.71-0.3-1.43-0.45-2.15c0.1-0.03,0.15-0.05,0.15-0.05c3.14-7.22,17.06-6.09,26.38,1.89&#9;&#9;c8.79,7.54,13.82,21.66,23.24,27.32c9.34,5.6,23.29,8.11,25.07-4.06C91.16,177.68,92.54,185.38,93.97,191.92z"/>
        <path class="st3" d="M291.33,184.22C291.33,184.23,291.33,184.23,291.33,184.22c-6.79,27.17-13.01,49.25-15.55,56.99&#9;&#9;c-11.29,7.49-24.01,11.95-37.02,13.19c-19.22,1.85-39.08-3.29-55.92-16.02c-2.87-4.53-5.96-13.33-8.95-23.51&#9;&#9;c-7.16-24.37-13.78-56.71-15.55-57.82c0,0,0.65-5.91-1.89-8.16c-2.83-2.52-6.95-1.53-11.03,0.98c6.28-5.65,18.88-4.12,26.1,3.42&#9;&#9;c7.22,7.54,15.7,24.8,22.3,43.64c6.6,18.84,22.62,47.1,45.22,47.42c22.62,0.31,35.17-22.92,40.82-38.94s8.16-23.55,11.31-21.35&#9;&#9;C291.23,184.11,291.28,184.16,291.33,184.22z"/>
        <path class="st2" d="M300.2,147.02c0,0-0.14,0.6-0.36,1.57c-0.27,1.18-0.66,2.87-1.08,4.68c0,0-0.01,0.01-0.03,0.02l-0.02,0.02&#9;&#9;c-10.37,0-16.64,19.15-21.35,32.97c-3.48,10.19-11.22,25.67-23.86,30.45c-10.36,3.93-21.98-1.98-24.78-12.7&#9;&#9;c-0.25-0.95-0.33-1.58-0.34-1.71c0-0.01-0.01-0.02-0.01-0.02c0,0-2.94-11.32-3.21-12.49c0.02,0.06,0.04,0.14,0.07,0.25&#9;&#9;c1.2-3.45,2.66-10.43,4.23-19.69c1.35,1.89,4.23,4.58,9.91,5.55c21.98,2.52,32.34-28.26,45.21-32.66&#9;&#9;C297.45,138.85,300.2,147.02,300.2,147.02z"/>
        <path class="st3" d="M158.34,157.06c-1.58,1.57-20.09,84.16-20.09,84.16s-29.9,22.65-66.99,9.96c-7.88-2.69-16.09-6.98-24.39-13.41&#9;&#9;c-13.28-22.54-23.14-53.3-30.34-86.35c9.06-0.22,17.52,9.55,27.83,39.25c10.35,29.83,20.41,46.79,41.45,45.85&#9;&#9;c21.04-0.94,32.34-22.3,38.94-36.43C131.33,185.96,147.67,156.43,158.34,157.06z"/>
        <path class="st3" d="M158.34,157.06c-1.58,1.57-20.09,84.16-20.09,84.16s-29.9,22.65-66.99,9.96c-7.88-2.69-16.09-6.98-24.39-13.41&#9;&#9;c-13.28-22.54-23.14-53.3-30.34-86.35c9.06-0.22,17.52,9.55,27.83,39.25c10.35,29.83,20.41,46.79,41.45,45.85&#9;&#9;c21.04-0.94,32.34-22.3,38.94-36.43C131.33,185.96,147.67,156.43,158.34,157.06z"/>
          </g>
    <g id="color_index_2" fill="rgba(84, 228, 247, 1)">
              <path d="M205.13,144.82c-4.39-3.77-12.56-16.33-24.49-19.47c-12.87-3.38-30.77,10.67-39.25,17.9&#9;&#9;c-8.48,7.22-23.24,11.31-32.34,3.45l-0.01-0.02c1.16-5,2.31-10.13,3.45-15.25c1.72,0.1,3.31-0.34,4.82-1.21&#9;&#9;c0.02-0.01,0.02-0.02,0.04-0.02c4.02-2.35,7.42-7.74,10.92-13.62c0.04-0.07,0.08-0.14,0.13-0.22c0.14-0.25,0.29-0.49,0.44-0.74&#9;&#9;c0.61-1.03,1.26-2.07,1.91-3.1c0.02-0.03,0.04-0.06,0.06-0.09c3.14-4.91,6.63-9.63,8.63-12.26c1.02-1.35,1.65-2.14,1.65-2.14&#9;&#9;c0.17-0.13,0.34-0.25,0.5-0.38c11.85-8.75,26.3-9.91,34.04-4.33c7.84,5.65,14.13,18.21,17.59,27.32&#9;&#9;c1.97,5.17,6.77,15.74,11.83,23.88L205.13,144.82z"/>
        <path d="M314.4,68.83c-0.28,2.52-0.6,5.14-0.96,7.82c-0.01,0.01-0.01,0.02-0.01,0.03c-0.69,5.14-1.51,10.55-2.44,16.14&#9;&#9;c-1.28,3.3-5.2,8.73-14.49,9.59c-10.05,0.94-20.73-9.1-29.84-15.38c-9.03-6.23-21.47-2.57-26.88,6.08&#9;&#9;c0.9-7.99,1.75-15.84,2.5-23.26c0.36-3.48,0.7-6.88,1.01-10.15c1.62-17,2.65-30.7,2.65-37.04c25.53-15.04,62.09-11.93,68.17,24.7&#9;&#9;C315.15,53.55,315.31,60.67,314.4,68.83z"/>
        <path d="M80.49,85.26c-0.01-0.03-0.01-0.07-0.02-0.1c-0.63-3.45-3.77-15.07-18.21-13.82&#9;&#9;c-14.45,1.26-21.04,17.9-27.64,28.89c-6.16,10.27-22.99,10.13-26.46,4.44c-1.37-9.42-2.55-18.81-3.57-28.03&#9;&#9;c3.1,5.6,10.1,1.3,13.4-5.29c3.45-6.91,15.07-24.18,33.28-21.35c18.01,2.79,24.04,16.33,28.72,26.64&#9;&#9;C80.12,79.29,80.28,82.18,80.49,85.26z"/>
          </g>
    <g id="color_index_3" fill="rgba(174, 253, 255, 1)">
              <path d="M79.99,76.63C75.3,66.32,69.27,52.78,51.27,49.99c-18.21-2.83-29.83,14.44-33.28,21.35&#9;&#9;c-3.3,6.59-10.3,10.89-13.4,5.29c-1.96-17.61-3.32-34.64-4.2-50.2C62.88-2.45,78.4,40.67,79.81,72.66&#9;&#9;c0.02,0.37,0.02,0.57,0.02,0.57C79.88,74.32,79.93,75.45,79.99,76.63z"/>
        <path d="M215.69,155.48c-6.92-0.27-19.05-25.8-22.49-34.85c-3.46-9.11-9.74-21.67-17.59-27.32&#9;&#9;c-7.74-5.57-22.2-4.43-34.04,4.33c-0.17,0.12-0.34,0.25-0.5,0.38c0,0-0.63,0.79-1.65,2.14c-2,2.62-5.49,7.35-8.63,12.26&#9;&#9;c-0.02,0.03-0.04,0.06-0.06,0.09c-0.66,1.03-1.3,2.07-1.91,3.1c-0.15,0.25-0.3,0.49-0.44,0.74c-0.05,0.07-0.09,0.14-0.13,0.22&#9;&#9;c-3.5,5.88-6.9,11.26-10.92,13.62c-0.02,0.01-0.02,0.02-0.04,0.02c-1.51,0.88-3.1,1.32-4.82,1.21&#9;&#9;c5.49-24.79,10.68-49.42,15.88-58.27c0.04-0.07,0.07-0.12,0.1-0.18c0.02-0.02,0.03-0.05,0.04-0.07&#9;&#9;c28.57-12.24,63.12-7.22,70.03,19.16c0.39,1.5,0.79,3.03,1.21,4.6C204.18,113.48,209.89,134.41,215.69,155.48z"/>
        <path d="M153,105.88c5.34,6.28-0.63,13.82-5.65,17.58c-5.03,3.77-6.6,14.13-11.62,10.67&#9;&#9;C130.71,130.68,142.64,101.17,153,105.88z"/>
        <path d="M314.4,68.83c-0.28,2.52-0.6,5.14-0.96,7.82c0.36-9.46-3.88-18-10.66-21.96c-8.25-4.81-21.67-3.45-32.04,3.77&#9;&#9;c-10.31,7.18-21.85,16.22-28.46,11.39c0.36-3.48,0.7-6.88,1.01-10.15c1.62-17,2.65-30.7,2.65-37.04&#9;&#9;c25.53-15.04,62.09-11.93,68.17,24.7C315.15,53.55,315.31,60.67,314.4,68.83z"/>
        <path d="M299.32,85.45c-0.31,4.79-2.1,8.23-6.27,6.93c-5.03-1.57-3.14-7.22-4.09-11.93&#9;&#9;c-0.95-4.71-3.45-9.42-0.31-11.62c6.28-1.88,10.36,7.22,10.67,13.5C299.39,83.41,299.39,84.46,299.32,85.45"/>
        <path d="M0.18,23.29C-0.65,16.39,0.81,1.74,16.09,0.06c9.63-0.84,9.21,7.75,3.14,8.58S2.69,13.46,0.18,23.29z"/>
          </g>
    <g id="color_index_4" fill="rgba(5, 35, 119, 1)">
              <path d="M238.76,254.41c-19.22,1.85-39.08-3.29-55.92-16.02c-2.87-4.53-5.96-13.33-8.95-23.51&#9;&#9;c3.63-5.91,14.69-2.73,20.87,6.55c6.28,9.42,18.53,32.98,43.65,32.98H238.76z"/>
        <path d="M158.34,157.06c-1.58,1.57-20.09,84.16-20.09,84.16s-29.9,22.65-66.99,9.96&#9;&#9;c33.86,1.88,49.73-23.52,56.31-44.09C134.27,186.16,145.57,163.56,158.34,157.06z"/>
          </g>
    <g>
              <path class="st7" d="M70.99,124.8c-2.81-1.59-6.48-0.85-8.23,1.87c-3.37,5.2-1.51,14.95,0.75,18.47c2.82,4.4,5.34,11.62,8.16,12.25&#9;&#9;c2.82,0.63,5.34-2.51,5.03-12.25C76.44,137.22,76.39,127.85,70.99,124.8z"/>
        <path class="st7" d="M79.81,72.66c-0.17-2.59-1.23-13.73-7.82-25.81c-7.54-13.82-28.26-15.7-37.37-13.82&#9;&#9;C25.53,34.91,7,36.8,0.4,26.43C63.14-3.53,78.4,40.67,79.81,72.66z"/>
        <path class="st7" d="M199.74,96.67c-1.67-3.88-9.54-15.9-27.9-15.9c-11.95,0-22.47,8.1-30.27,16.89c-0.74,0.84-1.47,1.67-2.15,2.52&#9;&#9;c-3.32,4.02-6.05,8.04-8.08,11.36c-0.18,0.3-0.36,0.6-0.54,0.89c-0.02,0.03-0.04,0.06-0.06,0.09c-0.79,1.3-1.57,2.59-2.34,3.84&#9;&#9;c-0.05,0.07-0.09,0.14-0.13,0.22c-3.77,6.12-7.25,11.3-10.92,13.62c-0.02,0.01-0.02,0.02-0.04,0.02c-1.57,0.98-3.16,1.43-4.82,1.21&#9;&#9;c5.49-24.79,10.68-49.42,15.88-58.27c0.04-0.07,0.07-0.12,0.1-0.18c0.02-0.02,0.03-0.05,0.04-0.07&#9;&#9;c28.57-12.24,63.12-7.22,70.03,19.16C198.93,93.56,199.33,95.09,199.74,96.67z"/>
        <path class="st7" d="M314.12,47.36l-0.03,0.42c-3.77-14.44-23.24-16.95-37.68-5.33c-11.36,9.14-25.45,21.44-33.11,17.25&#9;&#9;c1.62-17,2.65-30.7,2.65-37.04C271.47,7.62,308.04,10.74,314.12,47.36z"/>
        <path class="st7" d="M255.69,116.56c-8.48,8.79-5.97,16.96-10.05,21.35c-3.33,3.59-9.86,1.81-10.61-5.5&#9;&#9;c1.05-7.98,2.09-16.3,3.08-24.64l0.01-0.01c3.46-8.16,11.61-11.61,16.32-9.41C259.14,100.54,262.35,109.64,255.69,116.56z"/>
        <path class="st8" d="M299.96,148.58l-1.2,4.68c0,0-0.01,0.01-0.03,0.02l-0.02,0.02c-10.37,0-16.64,19.15-21.35,32.97&#9;&#9;c-3.48,10.19-11.22,25.67-23.86,30.45c-10.36,3.93-21.98-1.98-24.78-12.7c-0.25-0.95-0.33-1.58-0.34-1.71&#9;&#9;c4.09,10.35,13.5,13.48,23.23,11.28c9.73-2.2,18.84-18.84,24.49-37.37c5.64-18.45,13.14-28.18,23.74-27.63h0.12V148.58z"/>
        <path class="st8" d="M16.77,152.5c0.1,0.47,0.22,0.95,0.32,1.43c-0.03-0.07-0.05-0.1-0.05-0.1L16.77,152.5z"/>
        <path class="st8" d="M156.19,157.31c-10.61,2.89-25.29,29.56-31.45,42.76c-6.59,14.14-17.9,35.49-38.94,36.43&#9;&#9;c-21.04,0.94-31.09-16.02-41.45-45.85c-10.31-29.68-18.76-39.46-27.81-39.25l-0.66-3.24c8.58-1.26,20.22,7.46,31.92,45.11&#9;&#9;c11.51,37.05,28.47,41.03,38.1,40.61c10.67-0.47,23.45-6.91,36.85-34.13C135.43,174.02,145.66,159.4,156.19,157.31z"/>
        <path class="st8" d="M16.77,152.5c0.1,0.47,0.22,0.95,0.32,1.43c-0.03-0.07-0.05-0.1-0.05-0.1L16.77,152.5z"/>
        <path class="st8" d="M156.47,157.24c-10.63,2.5-25.51,29.52-31.73,42.84c-6.59,14.14-17.9,35.49-38.94,36.43&#9;&#9;c-21.04,0.94-31.09-16.02-41.45-45.85c-10.31-29.68-18.76-39.46-27.81-39.25l-0.66-3.24c8.58-1.26,20.46,7.86,34.11,44.85&#9;&#9;c13.5,36.58,25.85,36.68,35.49,36.26c10.67-0.46,19.57-4.5,32.97-31.72C131.27,171.56,145.42,158.89,156.47,157.24z"/>
        <path class="st9" d="M137.11,214.53c-4.88-0.27-7.84,9.79-10.61,15.07c-3.3,6.28-10.83,10.99-11.92,13.71&#9;&#9;c-1.09,2.71,1.05,3.08,5.88,1c3.98-1.72,10.13-4.52,15.02-15.39C137.68,224.04,140.91,215.08,137.11,214.53z"/>
        <path class="st9" d="M141.23,198.2c2.78,0.76,2.1,6.4-0.56,8.24c-1.25,0.86-2.91,0.11-3.11-1.4&#9;&#9;C137.17,202.16,139.01,197.95,141.23,198.2z"/>
        <path class="st10" d="M298.81,155.6c-3.35-0.42-7.54,2.09-12.14,10.88c-4.61,8.8-12.98,44.38-27.63,52.75&#9;&#9;c-14.66,8.38-30.56,2.52-40.62-21.35l0.06,0.02c4.26,3.36,7.57,3.75,9.76,4.34l0.13,0.06c0.02,0.13,0.1,0.76,0.34,1.72&#9;&#9;c2.81,10.72,14.41,16.62,24.78,12.7c12.64-4.79,20.38-20.27,23.86-30.45c4.71-13.82,10.99-32.97,21.35-32.97l0.02-0.02&#9;&#9;c0.02-0.02,0.03-0.02,0.03-0.02S299.43,154.67,298.81,155.6z"/>
        <path class="st8" d="M280.39,124.93c-4.21,5.16-11.81,4.83-16.31,9.22c-2.34,2.28-3.46,5.47-4.79,8.45&#9;&#9;c-2.07,4.66-4.88,9.14-9.06,12.07c-4.17,2.93-9.89,4.02-14.46,1.77c-1.42-0.7-2.65-1.68-3.7-2.85c0.17-1.13,0.34-2.29,0.5-3.45&#9;&#9;c0.81-5.62,1.62-11.57,2.44-17.72c1.05-7.98,2.09-16.3,3.08-24.64l0.01-0.01c0.29-2.47,0.58-4.95,0.87-7.42&#9;&#9;c2.51-4.52,7.4-7.64,12.56-8c5.35-0.38,10.8,2.21,13.9,6.58c3.4,4.8,4.29,11.68,9.37,14.64c2.63,1.53,6.14,1.78,7.07,5.56&#9;&#9;C282.37,121.15,281.72,123.3,280.39,124.93z"/>
        <path class="st8" d="M88.62,161.37c-1.57,3.7-4.46,6.98-8.3,8.11c-6.6,1.94-13.36-2.98-17.2-8.68c-3.85-5.7-6.13-12.49-10.82-17.53&#9;&#9;c-2.61-2.79-5.86-4.95-8.34-7.86c-2.47-2.92-4.11-7.05-2.62-10.58c1.97-4.71,8.08-5.86,11.89-9.28c3.43-3.09,4.74-7.81,6.46-12.1&#9;&#9;c1.72-4.29,4.52-8.77,9.03-9.76c4.17-0.92,8.48,1.58,10.96,5.05c0.87,1.21,1.55,2.5,2.12,3.86c0.59,6.26,1.09,11.42,1.23,12.82&#9;&#9;C84.54,130.47,86.46,146.62,88.62,161.37z"/>
        <path class="st8" d="M89.54,167.43c-3.27,4.98-10.9,7.29-16.93,5.32c-7.71-2.52-15.03-10.77-19.29-17.67&#9;&#9;c-4.26-6.9-8.25-14.36-14.93-18.94c-4.14-2.84-9.59-4.97-10.95-9.81c-1.33-4.74,2.21-9.54,6.31-12.27s8.96-4.33,12.62-7.62&#9;&#9;c6.91-6.25,8.87-17.9,17.64-21.07c6.11-2.2,12.67,1.19,16.79,6.44c0.34,3.62,0.68,7.35,1,10.77c0.59,6.26,1.09,11.42,1.23,12.82&#9;&#9;c1.5,15.07,3.42,31.22,5.59,45.96C88.92,163.41,89.23,165.44,89.54,167.43z"/>
        <path class="st8" d="M285.83,130.32c-4.69,2.55-10.15,3.67-14.44,6.85c-4.98,3.7-7.67,9.66-11.07,14.86&#9;&#9;c-4.53,6.91-11.09,13.03-19.2,14.59c-3.84,0.73-7.99,0.13-11.51-1.55c3.06-17.18,6.9-42.08,10.13-71.37&#9;&#9;c6.26-5.94,17.12-7.24,23.98-1.7c5.06,4.09,7.67,10.72,13.07,14.35c5.65,3.81,14.44,4.63,16.39,11.16&#9;&#9;C294.71,122.62,290.52,127.78,285.83,130.32z"/>
        <path class="st11" d="M158.34,157.06c0,0-10.08-0.86-22.75,13.92c-0.07,0.1-0.15,0.19-0.24,0.28&#9;&#9;c-5.65,6.44-11.39,15.15-16.89,26.31c-5.28,10.72-9.86,17.85-14.13,22.57c2.27-2.89,6.76-9.74,14.44-25.61&#9;&#9;c10.92-22.59,16.42-32.66,23.81-41.92c2.02-2.54,4.79-4.44,7.94-5.24C161.06,144.72,158.34,157.06,158.34,157.06z"/>
          </g>
  </svg>